{
  "accessors": [
    {
      "bufferView": 2,
      "componentType": 5126,
      "count": 1180,
      "max": [
        0.6621400117874146,
        0.561506986618042,
        -0.2764750123023987
      ],
      "min": [
        -1.0,
        -0.4331429898738861,
        -0.6116080284118652
      ],
      "type": "VEC3"
    },
    {
      "bufferView": 2,
      "byteOffset": 14160,
      "componentType": 5126,
      "count": 1180,
      "max": [
        1.0,
        0.9998978972434998,
        0.9999510049819946
      ],
      "min": [
        -1.0,
        -0.9998977780342102,
        -0.9999510049819946
      ],
      "type": "VEC3"
    },
    {
      "bufferView": 3,
      "componentType": 5126,
      "count": 1180,
      "max": [
        1.0,
        0.9999995231628418,
        0.9998603463172913,
        1.0
      ],
      "min": [
        -0.9999998807907104,
        -0.9999995231628418,
        -0.9998978972434998,
        -1.0
      ],
      "type": "VEC4"
    },
    {
      "bufferView": 1,
      "componentType": 5126,
      "count": 1180,
      "max": [
        0.9962189793586731,
        0.996990978717804
      ],
      "min": [
        0.0017914799973368645,
        0.002133619971573353
      ],
      "type": "VEC2"
    },
    {
      "bufferView": 0,
      "componentType": 5125,
      "count": 4371,
      "type": "SCALAR"
    },
    {
      "bufferView": 2,
      "byteOffset": 28320,
      "componentType": 5126,
      "count": 3041,
      "max": [
        0.6415500044822693,
        -0.41543400287628174,
        0.4775649905204773
      ],
      "min": [
        -0.5393710136413574,
        -0.44445300102233887,
        -0.10619000345468521
      ],
      "type": "VEC3"
    },
    {
      "bufferView": 2,
      "byteOffset": 64812,
      "componentType": 5126,
      "count": 3041,
      "max": [
        0.9702889919281006,
        0.9973007440567017,
        0.9617840051651001
      ],
      "min": [
        -0.9955485463142395,
        0.09382915496826172,
        -0.9603568911552429
      ],
      "type": "VEC3"
    },
    {
      "bufferView": 3,
      "byteOffset": 18880,
      "componentType": 5126,
      "count": 3041,
      "max": [
        0.9999683499336243,
        0.9446018934249878,
        0.9999992251396179,
        1.0
      ],
      "min": [
        -0.0010073003359138966,
        -0.9702854156494141,
        -0.7495435476303101,
        1.0
      ],
      "type": "VEC4"
    },
    {
      "bufferView": 1,
      "byteOffset": 9440,
      "componentType": 5126,
      "count": 3041,
      "max": [
        0.9975370168685913,
        0.953574001789093
      ],
      "min": [
        0.000997841008938849,
        0.0009901149896904826
      ],
      "type": "VEC2"
    },
    {
      "bufferView": 0,
      "byteOffset": 17484,
      "componentType": 5125,
      "count": 12636,
      "type": "SCALAR"
    },
    {
      "bufferView": 2,
      "byteOffset": 101304,
      "componentType": 5126,
      "count": 1575,
      "max": [
        1.0,
        -0.37325501441955566,
        0.6116080284118652
      ],
      "min": [
        -0.7162110209465027,
        -0.561506986618042,
        -0.5682640075683594
      ],
      "type": "VEC3"
    },
    {
      "bufferView": 2,
      "byteOffset": 120204,
      "componentType": 5126,
      "count": 1575,
      "max": [
        1.0,
        1.0,
        1.0
      ],
      "min": [
        -1.0,
        -1.0,
        -1.0
      ],
      "type": "VEC3"
    },
    {
      "bufferView": 3,
      "byteOffset": 67536,
      "componentType": 5126,
      "count": 1575,
      "max": [
        1.0,
        1.0,
        0.9999481439590454,
        1.0
      ],
      "min": [
        -1.0,
        -1.0,
        -1.0,
        -1.0
      ],
      "type": "VEC4"
    },
    {
      "bufferView": 1,
      "byteOffset": 33768,
      "componentType": 5126,
      "count": 1575,
      "max": [
        0.9924240112304688,
        0.9975119829177856
      ],
      "min": [
        0.003022270044311881,
        0.005704880226403475
      ],
      "type": "VEC2"
    },
    {
      "bufferView": 0,
      "byteOffset": 68028,
      "componentType": 5125,
      "count": 6756,
      "type": "SCALAR"
    }
  ],
  "asset": {
    "extras": {
      "author": "quaz30 (https://sketchfab.com/quaz30)",
      "license": "SKETCHFAB Standard (https://sketchfab.com/licenses)",
      "source": "https://sketchfab.com/3d-models/cyberpunk-laptop-6be01e731cd245d6909cbab1af0ad274",
      "title": "Cyberpunk Laptop"
    },
    "generator": "Sketchfab-12.68.0",
    "version": "2.0"
  },
  "bufferViews": [
    {
      "buffer": 0,
      "byteLength": 95052,
      "name": "floatBufferViews",
      "target": 34963
    },
    {
      "buffer": 0,
      "byteLength": 46368,
      "byteOffset": 95052,
      "byteStride": 8,
      "name": "floatBufferViews",
      "target": 34962
    },
    {
      "buffer": 0,
      "byteLength": 139104,
      "byteOffset": 141420,
      "byteStride": 12,
      "name": "floatBufferViews",
      "target": 34962
    },
    {
      "buffer": 0,
      "byteLength": 92736,
      "byteOffset": 280524,
      "byteStride": 16,
      "name": "floatBufferViews",
      "target": 34962
    }
  ],
  "buffers": [
    {
      "byteLength": 373260,
      "uri": "scene.bin"
    }
  ],
  "images": [
    {
      "uri": "textures/Laptop_Bottom_baseColor.jpeg"
    },
    {
      "uri": "textures/Laptop_Bottom_metallicRoughness.png"
    },
    {
      "uri": "textures/Laptop_Bottom_emissive.jpeg"
    },
    {
      "uri": "textures/Laptop_Bottom_normal.png"
    },
    {
      "uri": "textures/Laptop_Keyboard_baseColor.jpeg"
    },
    {
      "uri": "textures/Laptop_Keyboard_metallicRoughness.png"
    },
    {
      "uri": "textures/Laptop_Keyboard_emissive.jpeg"
    },
    {
      "uri": "textures/Laptop_Keyboard_normal.png"
    },
    {
      "uri": "textures/Laptop_Top_baseColor.jpeg"
    },
    {
      "uri": "textures/Laptop_Top_metallicRoughness.png"
    },
    {
      "uri": "textures/Laptop_Top_emissive.jpeg"
    },
    {
      "uri": "textures/Laptop_Top_normal.png"
    }
  ],
  "materials": [
    {
      "doubleSided": true,
      "emissiveFactor": [
        1.0,
        1.0,
        1.0
      ],
      "emissiveTexture": {
        "index": 2
      },
      "name": "Laptop_Bottom",
      "normalTexture": {
        "index": 3
      },
      "occlusionTexture": {
        "index": 1
      },
      "pbrMetallicRoughness": {
        "baseColorTexture": {
          "index": 0
        },
        "metallicRoughnessTexture": {
          "index": 1
        }
      }
    },
    {
      "doubleSided": true,
      "emissiveFactor": [
        1.0,
        1.0,
        1.0
      ],
      "emissiveTexture": {
        "index": 6
      },
      "name": "Laptop_Keyboard",
      "normalTexture": {
        "index": 7
      },
      "occlusionTexture": {
        "index": 5
      },
      "pbrMetallicRoughness": {
        "baseColorTexture": {
          "index": 4
        },
        "metallicRoughnessTexture": {
          "index": 5
        }
      }
    },
    {
      "doubleSided": true,
      "emissiveFactor": [
        1.0,
        1.0,
        1.0
      ],
      "emissiveTexture": {
        "index": 10
      },
      "name": "Laptop_Top",
      "normalTexture": {
        "index": 11
      },
      "occlusionTexture": {
        "index": 9
      },
      "pbrMetallicRoughness": {
        "baseColorTexture": {
          "index": 8
        },
        "metallicRoughnessTexture": {
          "index": 9
        }
      }
    }
  ],
  "meshes": [
    {
      "name": "defaultMaterial",
      "primitives": [
        {
          "attributes": {
            "NORMAL": 1,
            "POSITION": 0,
            "TANGENT": 2,
            "TEXCOORD_0": 3
          },
          "indices": 4,
          "material": 2,
          "mode": 4
        }
      ]
    },
    {
      "name": "defaultMaterial",
      "primitives": [
        {
          "attributes": {
            "NORMAL": 6,
            "POSITION": 5,
            "TANGENT": 7,
            "TEXCOORD_0": 8
          },
          "indices": 9,
          "material": 1,
          "mode": 4
        }
      ]
    },
    {
      "name": "defaultMaterial",
      "primitives": [
        {
          "attributes": {
            "NORMAL": 11,
            "POSITION": 10,
            "TANGENT": 12,
            "TEXCOORD_0": 13
          },
          "indices": 14,
          "material": 0,
          "mode": 4
        }
      ]
    }
  ],
  "nodes": [
    {
      "children": [
        1
      ],
      "matrix": [
        1.0,
        0.0,
        0.0,
        0.0,
        0.0,
        2.220446049250313e-16,
        -1.0,
        0.0,
        0.0,
        1.0,
        2.220446049250313e-16,
        0.0,
        0.0,
        0.0,
        0.0,
        1.0
      ],
      "name": "Sketchfab_model"
    },
    {
      "children": [
        2,
        4,
        6
      ],
      "matrix": [
        1.0,
        0.0,
        0.0,
        0.0,
        0.0,
        -4.371139006309477e-08,
        0.999999999999999,
        0.0,
        0.0,
        -0.999999999999999,
        -4.371139006309477e-08,
        0.0,
        0.0,
        0.0,
        0.0,
        1.0
      ],
      "name": "Collada visual scene group"
    },
    {
      "children": [
        3
      ],
      "name": "toppart_low"
    },
    {
      "mesh": 0,
      "name": "defaultMaterial"
    },
    {
      "children": [
        5
      ],
      "name": "keyboard_low"
    },
    {
      "mesh": 1,
      "name": "defaultMaterial"
    },
    {
      "children": [
        7
      ],
      "name": "bottompart_low"
    },
    {
      "mesh": 2,
      "name": "defaultMaterial"
    }
  ],
  "samplers": [
    {
      "magFilter": 9729,
      "minFilter": 9987,
      "wrapS": 10497,
      "wrapT": 10497
    }
  ],
  "scene": 0,
  "scenes": [
    {
      "name": "Sketchfab_Scene",
      "nodes": [
        0
      ]
    }
  ],
  "textures": [
    {
      "sampler": 0,
      "source": 0
    },
    {
      "sampler": 0,
      "source": 1
    },
    {
      "sampler": 0,
      "source": 2
    },
    {
      "sampler": 0,
      "source": 3
    },
    {
      "sampler": 0,
      "source": 4
    },
    {
      "sampler": 0,
      "source": 5
    },
    {
      "sampler": 0,
      "source": 6
    },
    {
      "sampler": 0,
      "source": 7
    },
    {
      "sampler": 0,
      "source": 8
    },
    {
      "sampler": 0,
      "source": 9
    },
    {
      "sampler": 0,
      "source": 10
    },
    {
      "sampler": 0,
      "source": 11
    }
  ]
}
